<svg width="154" height="100" viewBox="0 0 154 100" fill="none" xmlns="http://www.w3.org/2000/svg">
<path d="M1.072 16.096C0.922667 16.096 0.778667 16.0853 0.64 16.064C0.501333 16.0533 0.346667 16.0267 0.176 15.984L0.272 14.928C0.453333 14.9707 0.629333 14.992 0.8 14.992C1.28 14.992 1.664 14.8053 1.952 14.432C2.25067 14.048 2.47467 13.4613 2.624 12.672C2.77333 11.872 2.86933 10.848 2.912 9.6L3.072 4.8H10.672V16H9.504V5.504L9.808 5.824H3.824L4.112 5.488L3.968 9.568C3.92533 10.688 3.84533 11.6587 3.728 12.48C3.61067 13.2907 3.44 13.968 3.216 14.512C2.992 15.0453 2.704 15.4453 2.352 15.712C2 15.968 1.57333 16.096 1.072 16.096ZM15.2505 16V4.8H16.4185V14.08L23.5865 4.8H24.6585V16H23.4905V6.736L16.3225 16H15.2505ZM34.134 16.096C33.2913 16.096 32.5127 15.9573 31.798 15.68C31.0833 15.392 30.4647 14.992 29.942 14.48C29.4193 13.968 29.0087 13.3653 28.71 12.672C28.422 11.9787 28.278 11.2213 28.278 10.4C28.278 9.57867 28.422 8.82133 28.71 8.128C29.0087 7.43467 29.4193 6.832 29.942 6.32C30.4753 5.808 31.0993 5.41333 31.814 5.136C32.5287 4.848 33.3073 4.704 34.15 4.704C34.9607 4.704 35.7233 4.84267 36.438 5.12C37.1527 5.38667 37.7553 5.792 38.246 6.336L37.494 7.088C37.0353 6.61867 36.5287 6.28267 35.974 6.08C35.4193 5.86667 34.822 5.76 34.182 5.76C33.51 5.76 32.886 5.87733 32.31 6.112C31.734 6.336 31.2327 6.66133 30.806 7.088C30.3793 7.504 30.0433 7.99467 29.798 8.56C29.5633 9.11467 29.446 9.728 29.446 10.4C29.446 11.072 29.5633 11.6907 29.798 12.256C30.0433 12.8107 30.3793 13.3013 30.806 13.728C31.2327 14.144 31.734 14.4693 32.31 14.704C32.886 14.928 33.51 15.04 34.182 15.04C34.822 15.04 35.4193 14.9333 35.974 14.72C36.5287 14.5067 37.0353 14.1653 37.494 13.696L38.246 14.448C37.7553 14.992 37.1527 15.4027 36.438 15.68C35.7233 15.9573 34.9553 16.096 34.134 16.096ZM43.7151 16V5.504L44.0351 5.824H39.7791V4.8H48.8191V5.824H44.5791L44.8831 5.504V16H43.7151ZM50.0494 16L55.1694 4.8H56.3374L61.4574 16H60.2094L55.5054 5.488H55.9854L51.2814 16H50.0494ZM52.0654 13.008L52.4174 12.048H58.9294L59.2814 13.008H52.0654ZM64.4036 16V4.8H65.5716V14.08L72.7396 4.8H73.8116V16H72.6436V6.736L65.4756 16H64.4036ZM69.0756 3.984C68.2756 3.984 67.641 3.80267 67.1716 3.44C66.713 3.07733 66.4783 2.57067 66.4676 1.92H67.3476C67.3583 2.34667 67.5183 2.68267 67.8276 2.928C68.1476 3.17333 68.5636 3.296 69.0756 3.296C69.5876 3.296 69.9983 3.17333 70.3076 2.928C70.6276 2.68267 70.793 2.34667 70.8036 1.92H71.6836C71.673 2.57067 71.433 3.07733 70.9636 3.44C70.4943 3.80267 69.865 3.984 69.0756 3.984ZM80.6151 16V5.504L80.9351 5.824H76.6791V4.8H85.7191V5.824H81.4791L81.7831 5.504V16H80.6151ZM89.6534 9.808H95.5734V10.816H89.6534V9.808ZM89.7814 14.976H96.5174V16H88.5974V4.8H96.2774V5.824H89.7814V14.976ZM104.932 16V4.8H109.588C110.772 4.8 111.7 5.04533 112.372 5.536C113.054 6.016 113.396 6.72533 113.396 7.664C113.396 8.592 113.07 9.296 112.42 9.776C111.769 10.2453 110.916 10.48 109.86 10.48L110.132 10.08C111.38 10.08 112.329 10.3253 112.98 10.816C113.63 11.3067 113.956 12.0267 113.956 12.976C113.956 13.936 113.614 14.6827 112.932 15.216C112.26 15.7387 111.246 16 109.892 16H104.932ZM106.1 15.056H109.892C110.841 15.056 111.561 14.88 112.052 14.528C112.542 14.176 112.788 13.632 112.788 12.896C112.788 12.1707 112.542 11.6373 112.052 11.296C111.561 10.9547 110.841 10.784 109.892 10.784H106.1V15.056ZM106.1 9.872H109.524C110.388 9.872 111.049 9.70133 111.508 9.36C111.977 9.008 112.212 8.49067 112.212 7.808C112.212 7.12533 111.977 6.61333 111.508 6.272C111.049 5.92 110.388 5.744 109.524 5.744H106.1V9.872ZM125.908 4.8H127.076V16H125.908V4.8ZM118.9 16H117.716V4.8H118.9V16ZM126.02 10.832H118.772V9.792H126.02V10.832ZM131.657 16V4.8H132.825V14.08L139.993 4.8H141.065V16H139.897V6.736L132.729 16H131.657ZM144.316 14.656L144.748 13.808C145.239 14.2347 145.788 14.5547 146.396 14.768C147.015 14.9707 147.634 15.0773 148.252 15.088C148.871 15.088 149.436 14.9973 149.948 14.816C150.471 14.6347 150.892 14.368 151.212 14.016C151.532 13.6533 151.692 13.216 151.692 12.704C151.692 12.0533 151.431 11.552 150.908 11.2C150.396 10.848 149.682 10.672 148.764 10.672H146.364V9.712H148.7C149.49 9.712 150.103 9.54667 150.54 9.216C150.988 8.87467 151.212 8.40533 151.212 7.808C151.212 7.38133 151.084 7.01867 150.828 6.72C150.583 6.41067 150.242 6.176 149.804 6.016C149.378 5.84533 148.898 5.75467 148.364 5.744C147.831 5.72267 147.276 5.792 146.7 5.952C146.135 6.10133 145.586 6.34133 145.052 6.672L144.668 5.696C145.33 5.30133 146.018 5.02933 146.732 4.88C147.447 4.72 148.14 4.66667 148.812 4.72C149.484 4.77333 150.087 4.928 150.62 5.184C151.164 5.44 151.596 5.776 151.916 6.192C152.236 6.608 152.396 7.104 152.396 7.68C152.396 8.21333 152.258 8.68267 151.98 9.088C151.714 9.49333 151.335 9.808 150.844 10.032C150.364 10.2453 149.794 10.352 149.132 10.352L149.196 10C149.943 10 150.588 10.1173 151.132 10.352C151.687 10.5867 152.114 10.9227 152.412 11.36C152.722 11.7867 152.876 12.288 152.876 12.864C152.876 13.408 152.738 13.8933 152.46 14.32C152.194 14.736 151.82 15.088 151.34 15.376C150.871 15.6533 150.343 15.856 149.756 15.984C149.17 16.1013 148.556 16.1333 147.916 16.08C147.276 16.0267 146.647 15.888 146.028 15.664C145.41 15.4293 144.839 15.0933 144.316 14.656Z" fill="white"/>
<rect width="1" height="60" transform="translate(77 40)" fill="white"/>
</svg>
